<?xml version="1.0" encoding="iso-8859-1"?>
<!-- Generator: Adobe Illustrator 19.0.0, SVG Export Plug-In . SVG Version: 6.00 Build 0)  -->
<svg version="1.1" id="Layer_1" xmlns="http://www.w3.org/2000/svg" xmlns:xlink="http://www.w3.org/1999/xlink" x="0px" y="0px"
	 viewBox="0 0 512 512" style="enable-background:new 0 0 512 512;" xml:space="preserve">
<circle style="fill:#FF6472;" cx="256" cy="256" r="256"/>
<path style="fill:#C75163;" d="M293.064,106.305l-93.953,320.359l83.916,83.916c48.576-5.098,93.101-23.781,129.719-52.181
	l4.441-4.441l0.507,0.507c42.248-34.461,73.278-82.141,86.797-136.735L293.064,106.305z"/>
<rect x="218.936" y="106.296" style="fill:#FFD15D;" width="74.128" height="123.552"/>
<rect x="256" y="106.296" style="fill:#F9B54C;" width="37.064" height="123.552"/>
<path style="fill:#E6F3FF;" d="M312.889,426.665H199.111l-22.909-160.366c-2.922-20.449,12.947-38.745,33.604-38.745h92.389
	c20.658,0,36.524,18.296,33.604,38.745L312.889,426.665z"/>
<path style="fill:#CFDBE6;" d="M302.195,227.554H256v199.111h56.889l22.909-160.366C338.72,245.85,322.851,227.554,302.195,227.554z
	"/>
<rect x="213.333" y="284.444" style="fill:#F4CEDC;" width="85.333" height="85.333"/>
<rect x="256" y="284.444" style="fill:#EAB5CB;" width="42.667" height="85.333"/>
<g>
</g>
<g>
</g>
<g>
</g>
<g>
</g>
<g>
</g>
<g>
</g>
<g>
</g>
<g>
</g>
<g>
</g>
<g>
</g>
<g>
</g>
<g>
</g>
<g>
</g>
<g>
</g>
<g>
</g>
</svg>
