<svg enable-background="new 0 0 140 140" height="512" viewBox="0 0 140 140" width="512" xmlns="http://www.w3.org/2000/svg"><circle cx="70" cy="70" fill="#4da0dc" r="64"/><path d="m98.066658 29.5172882-24.6199951 6.2600098c-.7799683.1899414-1.210022 1.0100098-.9500122 1.7700195l.6799927 1.8898926 1.9000244 5.3500977-10.8699951 3.8798828-4.8800087-4.8798828h-.0100098c-.5499878-.6401367-1.3499756-1.0600586-2.2700195-1.0600586h-15.8699951c-1.6499634 0-2.9899902 1.3400879-2.9899902 2.9899902v2.7800293c-2.1099854 1.5100098-3.5599976 4.4499512-3.5599976 6.9799805v55.0999756l22.0166626 22.0167236c4.309082.9150391 8.7748451 1.4060059 13.3566933 1.4060059 35.3463135 0 63.9999924-28.6538086 63.9999924-64 0-2.3483887-.1352539-4.6645508-.3817749-6.9475098l-32.4915696-32.4851075c-.709961-.9101562-1.8900147-1.3500976-3.0599976-1.0500488z" opacity=".1"/><path d="m63.6067543 110.5785065h-28.9848976v-55.1015015c0-3.5851059 2.9063034-8.0004692 6.4914093-8.0004692h16.002079c3.5851097 0 6.4914093 4.4153633 6.4914093 8.0004692z" fill="#feda6f"/><path d="m57.0507317 42.7268028h-15.8728028c-1.6513672 0-2.9901733 1.338623-2.9901733 2.9902344v16.060791c0 5.819828 4.3917847 10.901371 10.1993408 11.2773476 6.3638306.4118652 11.6538086-4.6275635 11.6538086-10.90308v-16.4350586c0-1.6516113-1.3386841-2.9902344-2.9901733-2.9902344z" fill="#ededed"/><path d="m65.445206 36.231022h3.310626v26.311792h-3.310626z" fill="#19282f" transform="matrix(-.335 -.942 .942 -.335 43.077 129.164)"/><path d="m72.5013275 37.543335 6.2689514 17.6102867c.2677078.7520142 1.1240845 1.1109428 1.8479843.7745781l23.0437469-10.7079201c1.3882904-.6451111 2.0572586-2.2411041 1.5438614-3.6833115l-3.6111984-10.1443119c-.5133972-1.4422054-2.0403366-2.2564564-3.5239868-1.8792076l-24.6265106 6.2618237c-.773613.1967239-1.2105408 1.0160827-.9428482 1.7680626z" fill="#293b44"/><path d="m73.174942 39.4356117 4.9217224 13.8257332c.2101746.5904007 1.0214767.8227234 1.7507248.5013618l23.2138062-10.230175c1.3985443-.6163292 2.1597061-1.953331 1.7566452-3.085598l-2.8351364-7.964241c-.4030685-1.132267-1.8378067-1.6875362-3.3112106-1.2815037l-24.4564438 6.7395725c-.7682725.211731-1.2502671.9044762-1.0401078 1.4948502z" fill="#344d5b"/><path d="m54.5760269 52.0883484 1.1102753 3.1189003-6.7403603 6.0621796-3.4247169-9.6204567z" fill="#de594e"/><g fill="#fed35b"><path d="m40.3176613 85.1473007c4.8582649 1.0291519 12.7350273 1.0291519 17.5932922 0-4.8582649-1.0290451-12.7350273-1.0290451-17.5932922 0z"/><path d="m40.3176613 87.8352356c4.8582649 1.0291519 12.7350273 1.0291519 17.5932922 0-4.8582649-1.0290527-12.7350273-1.0290527-17.5932922 0z"/><path d="m40.3176613 90.5231628c4.8582649 1.0291519 12.7350273 1.0291519 17.5932922 0-4.8582649-1.0290451-12.7350273-1.0290451-17.5932922 0z"/></g></svg>