<svg enable-background="new 0 0 140 140" height="512" viewBox="0 0 140 140" width="512" xmlns="http://www.w3.org/2000/svg"><circle cx="70" cy="70" fill="#344d5b" r="64"/><path d="m133.0365906 81.0121155-54.8650513-54.8649883h-26.2600098l2.9899902 9.5297832s-1.0100098 8.4802246-4.4599609 19.1201172c-2.9100342 9.0200195-6.5700073 14.6298828-8.8300171 20.2399902-.4199829 1.0100098-.7900391 2.0300293-1.0900269 3.0600586-2.0100098 6.7600098-3.8800049 10.2099609-3.1599731 13.6599121.1300049.630127.3499756 1.0700684.6199951 1.3701172l2.7799683 2.7900391c-.1699829 1.5898438-.0499878 3.4299316 1.1600342 4.3798828l3.9299927 3.9199219c.1500244.5102539.4000244 1 .8200073 1.4101562l28.1717529 28.171875c29.3945313-2.2021484 53.2406617-24.2453613 58.1932984-52.7868652z" opacity=".1"/><path d="m80.347084 46.4584923c0-4.8821526.4339676-2.0073166-1.2910995-9.2003365-.8029556-3.3433723-.9521637-7.5601921-.8824768-11.114109h-26.2591667l2.9911613 9.5300369s-1.0089798 8.4843254-4.4590416 19.1272049c-2.9184418 9.0159416-6.5746651 14.6248894-8.8313446 20.2341118-.4230423 1.0090485-.7919693 2.0288849-1.0957222 3.059227-2.0071144 6.7592621-3.8731689 10.2093887-3.1571579 13.6595154.6943817 3.3307037 3.7972832 1.4320297 4.0142326 1.3018188-.0759583.2604141-3.2005615 9.5906982 4.6760559 7.605484 0 0-2.0939217 5.7065353 3.5260124 6.0429764 0 0 2.1590271-.1412582 2.8751068-1.2910309 0 0-.2821198 5.1751862 3.7429619 5.1751862 3.7429619 0 5.0015106-2.4844742 5.1642036-2.8317032-.1301422.4990005-1.117424 5.1967621 6.2383575 6.0214157 7.7572632.8570023 11.1639862-5.4897919 11.1639862-13.5400925s.5749512-10.5021515 1.7249908-13.3772583c1.1499786-2.8748398 1.3018875-8.3320084-.716011-15.5252991-2.0071791-7.1930236.5749513-19.9842109.5749513-24.8771476z" fill="#feda6f"/><g fill="#de594e"><path d="m64.3109436 109.9117432c-.7040291-.1510239-1.1119118-.8833694-.8800812-1.5650711.6275482-1.8453217 2.1208267-5.0063477 4.9706573-4.9282761 4.0186081.1100998 3.6883087 3.0277176 3.4681091 4.2388077-.1276703.7022018-.4680939 1.7712936-.731636 2.5457458-.1908493.5608444-.7614517.8975449-1.3445587.7928772-1.1116409-.1995544-3.0701141-.566597-5.4824905-1.0840835z"/><path d="m54.1438637 107.4475174c-.4698601-.1007919-.7420769-.5895538-.5873566-1.0445099.4188194-1.2315521 1.4154205-3.3411942 3.3173676-3.2890854 2.6819763.0734787 2.4615402 2.020668 2.3145828 2.8289337-.0852089.4686508-.3124046 1.1821518-.4882851 1.6990128-.1273727.3742981-.5081902.5990067-.8973465.5291519-.7418976-.1331787-2.0489654-.3781357-3.6589622-.7235031z"/><path d="m47.09618 103.9537888c-.4698601-.1007919-.7420769-.5895462-.5873566-1.0445099.4188194-1.2315445 1.4154205-3.3411865 3.3173676-3.2890778 2.6819763.0734787 2.4615402 2.020668 2.3145828 2.8289337-.0852089.4686432-.3124046 1.1821442-.4882851 1.6990051-.1273727.3743057-.5081902.5990143-.8973465.5291595-.7418976-.1331786-2.0489654-.3781356-3.6589622-.7235106z"/><path d="m41.9234123 98.1092758c-.4051361-.1016617-.6269341-.5344162-.4788704-.9249878.4007988-1.057251 1.1049881-2.6405869 2.755619-2.5382233 2.3275909.1443481 2.0776405 1.8292236 1.9257164 2.526947-.088089.4045486-.3068695 1.0175323-.4751778 1.4612427-.1218796.3213272-.4594383.5050964-.7953949.4327316-.6404799-.1379623-1.5436782-.6093597-2.9318923-.9577102z"/><path d="m38.3173752 91.3589401c-.2492981-.1251373-.3309784-.4394379-.1777153-.6725006.4148827-.6308823 1.1039696-1.5605774 2.1649857-1.2539825 1.4961624.4323273 1.088398 1.4942245.8879814 1.926918-.1162071.2508926-.3478889.6186447-.5220718.8834-.1261406.1917343-.3728676.2624588-.5813293.1664658-.3974191-.1829987-.9176294-.6215058-1.7718507-1.0503007z"/></g><g fill="#fed35b"><path d="m52.4074554 105.4184875c2.0757179-4.6398087 3.0690002-7.6867523 3.0690002-7.6867523-1.7667159 1.6388398-3.0690002 7.6867523-3.0690002 7.6867523z"/><path d="m45.89077 100.5241776c2.5487633-4.3977432 3.8547211-7.3243484 3.8547211-7.3243484-1.9281579 1.4454497-3.8547211 7.3243484-3.8547211 7.3243484z"/><path d="m41.3984642 93.0342789c2.132164-3.6789322 3.224659-6.1271744 3.224659-6.1271744-1.6129952 1.2091827-3.224659 6.1271744-3.224659 6.1271744z"/><path d="m61.3206673 107.726944c2.0757179-4.639801 3.0690041-7.6867523 3.0690041-7.6867523-1.7667199 1.6388397-3.0690041 7.6867523-3.0690041 7.6867523z"/><path d="m51.914341 26.1440468 2.9911613 9.5300369s-1.0089798 8.4843254-4.4590416 19.1272049c-2.9184418 9.0159416-6.5746651 14.6248894-8.8313446 20.2341118.4231796-.4448166.8896904-1.0201035 1.3996086-1.7469025 10.1115303-14.2992363 14.6682282-38.0158233 14.6682282-38.0158233l-4.6119652-9.1286278z"/></g><path d="m76.9621124 39.6558495c.0217209.2169342.0325775.3906898.0433731.5207443z" fill="#d59247"/><path d="m80.347084 46.4584923c0-4.8821526.4339676-2.0073166-1.2910995-9.2003365-.8029556-3.3433723-.9521637-7.5601921-.8824768-11.114109h-.9880219c-.2348099 1.7679272-.4258804 3.7671566-.4946213 5.9173546.4665146 3.0160942 1.1608963 7.203804 1.9312286 11.1747627 1.4320908 7.410038-1.5840073 14.2666168-1.3019562 21.5572243.2821198 7.2908859 2.9726944 11.5764465 2.9726944 12.9976883 0 1.4320297.4773636 3.6453094-.7919693 8.4083023-1.2693939 4.7519455-1.8010178 9.0590744-.737709 14.0388184 0-8.050293.5749512-10.5021515 1.7249908-13.3772583 1.1499786-2.8748398 1.3018875-8.3320084-.716011-15.5252991-2.0071792-7.1930237.5749512-19.984211.5749512-24.8771477z" fill="#fed35b"/><path d="m78.479942 91.318565h2.141665v17.021265h-2.141665z" fill="#dbd8dd" transform="matrix(-.533 -.846 .846 -.533 37.47 220.342)"/><path d="m81.2881699 91.5896759 6.444046 10.2324524c.2751846.4369583.8665009.5426407 1.2760162.2280807l13.0359116-10.0135651c.7853622-.6032791.9823532-1.7052994.4546127-2.5432892l-3.712059-5.8943481c-.5277405-.8379974-1.6066742-1.1364517-2.4900589-.6888123l-14.6628723 7.4301682c-.4606171.2334137-.6207657.812378-.3455963 1.2493134z" fill="#dbd8dd"/><path d="m81.9805984 92.6891861 5.0591888 8.033432c.2160416.3430557.7610321.3751755 1.176033.0693359l13.2107315-9.7359695c.7958984-.5865555 1.0876541-1.5380936.6733322-2.1959991l-2.9143143-4.6276169c-.4143295-.6579056-1.3984909-.8058777-2.2713394-.3415146l-14.48806 7.7077637c-.4551238.242134-.6616057.747528-.4455718 1.0905685z" fill="#ededed"/><path d="m72.0253372 103.3029709 1.1412888 1.812233-3.8508606 4.0618362-2.5732804-4.0860825z" fill="#293b44"/></svg>