<?xml version="1.0" encoding="iso-8859-1"?>
<!-- Generator: Adobe Illustrator 19.0.0, SVG Export Plug-In . SVG Version: 6.00 Build 0)  -->
<svg version="1.1" id="Capa_1" xmlns="http://www.w3.org/2000/svg" xmlns:xlink="http://www.w3.org/1999/xlink" x="0px" y="0px"
	 viewBox="0 0 512.001 512.001" style="enable-background:new 0 0 512.001 512.001;" xml:space="preserve">
<circle style="fill:#7600FF;" cx="256" cy="256" r="256"/>
<path style="fill:#5900BF;" d="M512,256c0-3.152-0.077-6.286-0.19-9.411L336.442,71.221l-2.775,69.803l-59.225-7.803l32.065,32.064
	L201.508,344.287l-59.732-59.732l-9.379,60.991l-52.621,1.009l162.289,165.064C246.679,511.866,251.324,512,256,512
	C397.385,512,512,397.385,512,256z"/>
<path style="fill:#FFE13C;" d="M256,181.667L256,181.667c-47.313,0-85.667,38.354-85.667,85.667v229.962
	C197.12,506.806,225.952,512,256,512s58.88-5.194,85.667-14.705V267.333C341.667,220.021,303.313,181.667,256,181.667z"/>
<path style="fill:#FFBA31;" d="M256,181.667L256,181.667c-0.144,0-0.285,0.01-0.429,0.011v330.318c0.143,0,0.285,0.005,0.429,0.005
	c30.048,0,58.88-5.194,85.667-14.705V267.333C341.667,220.021,303.313,181.667,256,181.667z"/>
<path style="fill:#FF0098;" d="M256,353.667L256,353.667c-31.849,0-57.667-25.818-57.667-57.667V156.333h115.333V296
	C313.667,327.848,287.848,353.667,256,353.667z"/>
<path style="fill:#DF008B;" d="M255.571,156.333v197.323c0.143,0.001,0.285,0.011,0.429,0.011l0,0
	c31.848,0,57.667-25.818,57.667-57.667V156.333H255.571z"/>
<path style="fill:#FFFFFF;" d="M336.442,195.221c-10.896-25.987-12.06-37.381-18.456-43.544
	c-6.163-6.395-17.557-7.559-43.544-18.456c25.987-10.897,37.381-12.061,43.544-18.456c6.395-6.163,7.56-17.557,18.456-43.544
	c10.896,25.987,12.06,37.381,18.456,43.544c6.163,6.395,17.557,7.559,43.544,18.456c-25.987,10.896-37.381,12.061-43.544,18.456
	C348.503,157.84,347.339,169.234,336.442,195.221z"/>
<path style="fill:#E1FFFA;" d="M398.442,133.221c-25.987-10.896-37.381-12.061-43.544-18.456
	c-6.345-6.114-7.798-17.992-18.456-43.544v124c10.657-25.552,12.111-37.43,18.456-43.544
	C361.061,145.281,372.455,144.117,398.442,133.221z"/>
<path style="fill:#FFFFFF;" d="M141.775,408.554c-10.896-25.987-12.06-37.381-18.456-43.544
	c-6.163-6.395-17.557-7.559-43.544-18.456c25.987-10.897,37.381-12.061,43.544-18.456c6.395-6.163,7.56-17.557,18.456-43.544
	c10.896,25.987,12.061,37.381,18.456,43.544c6.163,6.395,17.557,7.559,43.544,18.456c-25.987,10.896-37.381,12.061-43.544,18.456
	C153.836,371.173,152.672,382.567,141.775,408.554z"/>
<path style="fill:#E1FFFA;" d="M203.775,346.554c-25.987-10.896-37.381-12.061-43.544-18.456
	c-6.345-6.114-7.798-17.992-18.456-43.544v124c10.657-25.552,12.111-37.43,18.456-43.544
	C166.394,358.615,177.788,357.451,203.775,346.554z"/>
<g>
</g>
<g>
</g>
<g>
</g>
<g>
</g>
<g>
</g>
<g>
</g>
<g>
</g>
<g>
</g>
<g>
</g>
<g>
</g>
<g>
</g>
<g>
</g>
<g>
</g>
<g>
</g>
<g>
</g>
</svg>
