<?xml version="1.0" encoding="iso-8859-1"?>
<!-- Generator: Adobe Illustrator 19.0.0, SVG Export Plug-In . SVG Version: 6.00 Build 0)  -->
<svg version="1.1" id="Layer_1" xmlns="http://www.w3.org/2000/svg" xmlns:xlink="http://www.w3.org/1999/xlink" x="0px" y="0px"
	 viewBox="0 0 512 512" style="enable-background:new 0 0 512 512;" xml:space="preserve">
<path style="fill:#FD4C8D;" d="M300.739,241.967c-9.105-10.748-22.404-16.912-36.49-16.912h-18.213v-59.077
	c0-4.662-3.778-8.44-8.44-8.44h-123.78c-4.662,0-8.44,3.778-8.44,8.44v59.077h-18.21c-14.086,0-27.386,6.164-36.49,16.912
	c-9.106,10.747-12.999,24.88-10.683,38.775l37.368,224.207c0.68,4.069,4.2,7.052,8.325,7.052h180.043
	c4.125,0,7.646-2.982,8.325-7.052l37.367-224.207C313.738,266.848,309.845,252.714,300.739,241.967z"/>
<path d="M409.285,286.414c-4.662,0-8.44-3.778-8.44-8.44V121.139c0-4.662,3.778-8.44,8.44-8.44c4.661,0,8.44,3.778,8.44,8.44
	v156.835C417.725,282.636,413.946,286.414,409.285,286.414z"/>
<path style="fill:#D7326A;" d="M237.598,157.538h-123.78c-4.662,0-8.44,3.778-8.44,8.44v59.077h8.44h8.44h106.901h8.44h8.44v-59.077
	C246.037,161.316,242.258,157.538,237.598,157.538z"/>
<path style="fill:#B62A5C;" d="M248.85,208.176H102.565c-4.662,0-8.44-3.778-8.44-8.44s3.778-8.44,8.44-8.44H248.85
	c4.662,0,8.44,3.778,8.44,8.44S253.511,208.176,248.85,208.176z"/>
<path style="fill:#333333;" d="M464.222,270.066H351.696c-4.661,0-8.44,3.778-8.44,8.44v168.791
	c0,35.678,29.025,64.703,64.703,64.703c35.677,0,64.702-29.025,64.702-64.703V278.505
	C472.662,273.843,468.884,270.066,464.222,270.066z"/>
<path style="fill:#1E1E1D;" d="M464.222,270.066h-34.428v7.163c0.063,0.417,0.107,0.842,0.107,1.276v168.791
	c0,28.187-18.123,52.207-43.322,61.057c6.698,2.352,13.889,3.646,21.38,3.646c35.677,0,64.702-29.025,64.702-64.703V278.505
	C472.662,273.843,468.884,270.066,464.222,270.066z"/>
<path style="fill:#FD4C8D;" d="M455.348,3.55C453.766,1.323,451.203,0,448.47,0h-81.02c-2.764,0-5.353,1.353-6.929,3.623
	c-1.578,2.27-1.943,5.167-0.981,7.758l41.835,112.527c1.231,3.308,4.386,5.499,7.91,5.499c0.029,0,0.06,0,0.089,0
	c3.559-0.037,6.712-2.303,7.883-5.664L456.44,11.217C457.339,8.634,456.933,5.778,455.348,3.55z"/>
<g>
	<path style="fill:#D7326A;" d="M455.348,3.55C453.766,1.323,451.203,0,448.47,0h-31.808l-29.673,85.214l14.385,38.695
		c1.231,3.308,4.386,5.499,7.91,5.499c0.029,0,0.06,0,0.089,0c3.559-0.037,6.712-2.303,7.883-5.664l39.184-112.527
		C457.339,8.634,456.933,5.778,455.348,3.55z"/>
	<path style="fill:#D7326A;" d="M300.739,241.967c-9.105-10.748-22.404-16.912-36.49-16.912h-43.434
		c14.086,0,27.386,6.164,36.49,16.912c9.106,10.747,12.999,24.88,10.682,38.775L230.62,504.948c-0.68,4.069-4.2,7.052-8.325,7.052
		h43.434c4.125,0,7.646-2.982,8.325-7.052l37.367-224.207C313.738,266.848,309.845,252.714,300.739,241.967z"/>
</g>
<g>
</g>
<g>
</g>
<g>
</g>
<g>
</g>
<g>
</g>
<g>
</g>
<g>
</g>
<g>
</g>
<g>
</g>
<g>
</g>
<g>
</g>
<g>
</g>
<g>
</g>
<g>
</g>
<g>
</g>
</svg>
